<?xml version="1.0" encoding="UTF-8"?>
<svg id="Layer_1" data-name="Layer 1" xmlns="http://www.w3.org/2000/svg" viewBox="0 0 726.22 726.22">
  <defs>
    <style>
      .cls-1, .cls-2 {
        stroke-width: 0px;
      }

      .cls-2 {
        fill: #016d75;
      }
    </style>
  </defs>
  <circle class="cls-2" cx="363.11" cy="363.11" r="363.11"/>
  <path class="cls-1" d="m374.24,483.79v196.98c-6.12,0-11.75.12-17.36-.12-.94-.04-2.37-1.59-2.58-2.64-.41-2.09-.15-4.31-.15-6.48,0-60.85,0-121.69.01-182.54,0-1.64,0-3.28,0-5.37-2.44-.11-4.4-.21-6.36-.3-31.47-1.46-63-2.2-94.39-4.66-19.69-1.55-39.21-5.49-58.72-8.83-4.8-.82-9.56-2.99-13.82-5.45-4.81-2.77-8.13-6.89-6.34-13.27.36-1.28-.22-2.95-.71-4.32-5.87-16.45-11.85-32.86-17.69-49.33-1.11-3.12-1.63-6.43-2.63-9.59-.79-2.48-1.43-5.22-2.94-7.22-5.26-6.97-4.46-13.86,3.6-17.7,7.28-3.46,15.13-6.56,23.04-7.72,18.77-2.76,37.71-4.36,56.6-6.26,8.77-.88,17.59-1.38,26.78-2.08-3.36-10.36-6.77-20.37-9.86-30.47-11.4-37.35-19.15-75.54-23.79-114.24-4.52-37.68-7.51-75.55-11.22-113.33-.14-1.44-.68-2.88-1.28-4.22-2.75-6.17-1.19-12.05,5.41-14.25,9.57-3.2,19.46-5.93,29.43-7.4,42.58-6.27,85.52-4.52,128.34-4.49,26.5.02,53.01,1.16,79.48,2.56,13.93.74,27.84,2.76,41.64,4.93,4.39.69,8.69,3.28,12.54,5.77,4.34,2.81,5.07,7.59,3.22,12.43-.87,2.26-1.5,4.73-1.65,7.13-4.11,65.91-11.3,131.41-26.98,195.7-4.88,20-11.32,39.62-17.16,59.83,9.05.67,18.64.98,28.13,2.16,21.79,2.71,43.57,5.64,65.27,8.96,4.63.71,9.2,2.99,13.37,5.3,6.73,3.73,7.13,9.32,3.56,16.03-3.7,6.97-6.28,14.59-8.9,22.08-5.56,15.86-10.82,31.83-16.22,47.75-.21.63-.74,1.25-.72,1.85.48,10.43-6.98,14.08-14.93,15.85-16.06,3.58-32.26,6.74-48.55,9.05-36.86,5.21-73.98,7.09-111.18,7.59-1.14.02-2.28.16-4.3.31ZM504.01,92.88c-13.88,2.07-27.32,4.3-40.83,5.94-4.4.53-5.67,1.95-5.88,6.36-1.57,32.95-2.99,65.91-5.36,98.81-2.99,41.56-8.82,82.76-18.76,123.3-1.45,5.9-2.94,11.8-4.73,18.96,8.96,0,17.11-.27,25.23.12,3.65.18,5.46-.73,6.48-4.24,6.55-22.51,14.25-44.74,19.64-67.52,12.64-53.43,18.89-107.87,23.03-162.56.5-6.59.82-13.2,1.18-19.18Zm-279.06.12c0,2.29-.23,5.29.04,8.24,2.19,23.87,4.23,47.77,6.79,71.6,4.03,37.6,9.94,74.94,19.33,111.58,5.03,19.62,11.65,38.84,17.7,58.19.45,1.45,2.11,3.62,3.2,3.62,9.24-.05,18.48-.53,27.75-.87,0-1.19.11-1.7-.02-2.15-15.92-56.57-21.96-114.64-25.9-172.99-1.5-22.27-2.08-44.6-2.94-66.91-.1-2.65-.83-3.87-3.54-4.24-14.13-1.95-28.24-4.03-42.41-6.07Zm109.09,252.02c0-1.97.1-3.1-.02-4.22-1.66-15.4-3.92-30.75-4.93-46.19-2.62-40.23-4.97-80.49-6.88-120.76-1.05-21.97-1.11-43.98-1.35-65.98-.04-3.99-1.24-5.26-5.11-5.12-3.82.14-7.66-.34-11.48-.56-8.1-.47-16.19-.96-24.79-1.47,0,2.35-.06,4.13,0,5.91.38,10.49.75,20.98,1.2,31.47,1.93,45.96,5.36,91.81,13.27,137.16,3.83,21.94,9.2,43.6,14.04,65.36.36,1.62,1.97,4.16,3.09,4.22,7.6.38,15.23.2,22.95.2Zm114.56-244.18c-12.78.72-25.08,1.5-37.38,2.07-3.3.15-3.1,2.15-3.17,4.39-1.39,42.61-2.33,85.24-4.38,127.82-1.33,27.58-4.24,55.09-6.55,82.62-.75,8.87-1.86,17.71-2.79,26.4.85.36,1.15.58,1.45.59,6.16.13,12.35-.04,18.48.45,4.14.33,5.67-1.09,6.78-5.06,12.74-45.56,18.77-92.23,22.75-139.18,2.25-26.54,3.33-53.18,4.76-79.78.36-6.6.05-13.24.05-20.32Zm-73.92,243.9c1.94,0,3.44-.14,4.9.03,4.12.48,6.12-.46,6.55-5.38,2.27-25.69,6-51.29,7.37-77.02,2.72-50.89,4.22-101.84,6.21-152.76.07-1.9,0-3.81,0-5.68h-25.05v240.82Zm-20.95-.77V103.72h-24.53c0,2.61-.07,4.91.01,7.21,1.6,45.14,2.64,90.3,5.03,135.39,1.58,29.92,4.99,59.75,7.82,89.6.91,9.56,1.44,9.67,11,8.56.14-.02.26-.19.67-.51ZM485.44,79.12c-1.88-.55-3.24-1.14-4.66-1.34-9.72-1.35-19.41-3.25-29.18-3.78-23.12-1.23-46.27-2.2-69.42-2.54-41.15-.62-82.31-.69-123.25,4.54-4.79.61-9.52,1.71-14.28,2.59,36.71,9.18,219.54,9.05,240.78.53Zm17.21,319.18c-1-.25-1.48-.49-1.93-.46-20.27,1.32-40.54,2.62-60.79,4.09-1.42.1-3.12,1.19-4.05,2.34-6.36,7.86-3.72,17.63-6.37,26.6,22.35,1.33,43.74,2.6,65.62,3.91,2.51-12.15,5.01-24.27,7.53-36.47Zm-276.89-.68c2.41,11.42,4.79,22.12,6.85,32.88.55,2.86,1.67,3.31,4.33,3.15,18.78-1.09,37.57-1.98,56.35-2.95,1.75-.09,3.49-.27,5.62-.44-1.09-7.61-1.59-14.79-3.32-21.66-.98-3.88-3.82-7.18-8.94-7.23-6.82-.06-13.64-.51-20.45-.95-13.25-.86-26.49-1.83-40.45-2.8Zm337.32-8.7c-15.96,2.43-31.05,4.67-46.12,7.11-1.26.2-3.08,1.56-3.33,2.68-2.72,12.28-5.18,24.62-7.72,37,13.06,2.49,25.66,4.89,38.69,7.37,6.08-17.81,12.27-35.95,18.49-54.16Zm-340.61,45.49c-1.71-8.23-3.39-16.36-5.09-24.47-.92-4.39-.54-10.27-3.24-12.73-2.87-2.61-8.7-1.98-13.23-2.75-11.57-1.98-23.14-3.96-35.53-6.09,6.19,18.15,12.25,35.95,18.14,53.23,13.17-2.43,25.69-4.74,38.96-7.19Zm-53.57-62.79c.02.6.05,1.2.07,1.8,35.95,8.21,72.65,9.38,109.87,11.53-3.87-7.64-7.57-14.33-10.63-21.29-1.45-3.31-3.33-3.87-6.49-3.57-17.9,1.73-35.85,2.96-53.69,5.09-13.11,1.57-26.1,4.25-39.14,6.44Zm390.05.74c-.3-.13-.59-.3-.91-.38-30.53-7.48-61.81-9.2-92.96-11.86-1.09-.09-2.89.45-3.31,1.24-3.97,7.55-7.72,15.23-11.78,23.38,37.01-2.02,73.36-3.37,108.96-12.38Zm-130.97,69.08c-1.01,7.56-1.89,14.11-2.79,20.78,1.02.26,1.65.58,2.26.56,19.8-.65,39.59-1.29,59.38-2.1,1.12-.05,2.86-1.24,3.16-2.24,1.13-3.75,1.77-7.64,2.78-12.32-21.86-1.58-43.03-3.11-64.8-4.68Zm-127.22.74c-21.93,1.76-43.07,3.45-64.41,5.16.32,2.48.56,3.78.64,5.09.31,5.18,2.99,7.21,8.2,7.39,10.97.37,21.92,1.45,32.9,1.88,8.25.32,16.52.06,25.3.06-.82-6.16-1.65-12.35-2.62-19.58Zm73.84,20.69h39.46c1.04-7.2,2.05-14.17,3.14-21.69h-42.59v21.69Zm-63.05-21.2c.95,6.89,1.69,12.94,2.72,18.93.15.88,1.71,2.16,2.63,2.17,12.24.15,24.48.1,37,.1v-21.21h-42.35Zm-36.41-82.23c4.89,8.76,9.18,16.57,13.63,24.29.48.82,1.87,1.57,2.85,1.58,7.75.13,15.5.07,23.4.07-3.37-8.47-6.7-16.96-10.18-25.38-.33-.81-1.67-1.74-2.52-1.72-8.6.26-17.2.7-27.18,1.16Zm138.57,26.03c5.84,0,11.34-.41,16.76.1,7.3.7,11.22-2.77,13.95-9.01,2.47-5.63,5.52-11.01,8.66-17.19-9.58-.46-17.85-.94-26.14-1.14-1.08-.03-2.77,1.14-3.2,2.16-3.45,8.23-6.66,16.56-10.03,25.08Zm2.22-27.66h-23.79c-1.75,9.4-3.47,18.66-5.25,28.25,5.18,0,10.12.1,15.04-.09.85-.03,2.02-1.14,2.42-2.03,3.75-8.26,7.37-16.59,11.57-26.13Zm-103.1.06c4.2,9.54,7.8,17.87,11.58,26.13.45.99,1.86,2.13,2.87,2.18,4.73.23,9.48.1,14.53.1-1.83-9.82-3.58-19.2-5.3-28.41h-23.68Zm31.36,65.81c-5.68-6.18-11.37-12.43-17.13-18.61-.84-.9-2-2.09-3.05-2.13-5.91-.21-11.84-.1-17.76-.1.98,9.3,25.08,22.3,37.94,20.84Zm39.91.49c14.71-.75,26.89-7.16,37.3-17.38.86-.84.92-2.49,1.39-3.88-6.38,0-12.03-.1-17.67.08-1.11.04-2.42.91-3.24,1.78-5.87,6.28-11.64,12.66-17.78,19.4Zm116.85,35.47c11.05-1.57,21.49-3.06,31.92-4.55,0-.63.01-1.27.02-1.9-9.7-1.79-19.4-3.58-29.47-5.45-.79,3.81-1.46,7.03-2.47,11.89Zm-126.62-102.27c0,9.14-.05,17.76.07,26.38.01.92.97,1.83,1.49,2.74.8-.87,1.92-1.61,2.32-2.63.72-1.84,1.1-3.83,1.47-5.78,1.27-6.77,2.47-13.55,3.77-20.71h-9.12Zm-28.33.12c-.57,10.34,3.98,27.75,7.71,28.96v-28.96h-7.71Zm-143.6,95.63c.02.56.04,1.11.06,1.67,8.03,1.03,16.07,2.06,24.8,3.18-.7-3.39-1.18-5.75-1.8-8.75-7.95,1.35-15.51,2.62-23.07,3.9Zm217.74-33.07c-6.38,3.45-12.04,6.51-19.04,10.29h17.75c.42-3.39.82-6.57,1.28-10.29Zm-83.43-15.75c4.58,4.15,9.16,8.3,13.74,12.44q-3.41-13.99-13.74-12.44Zm40.47,11.43c.37.36.75.72,1.12,1.09,4.54-4.21,9.09-8.43,14.48-13.43q-10.32-.69-13.43,6.9c-.74,1.81-1.45,3.63-2.17,5.44Zm-68.7,4.28c.47,3.64.87,6.65,1.27,9.75h16.57c-6.25-3.42-11.68-6.38-17.84-9.75Z"/>
</svg>