<?xml version="1.0" encoding="utf-8"?>
<!-- Generator: Adobe Illustrator 27.9.1, SVG Export Plug-In . SVG Version: 6.00 Build 0)  -->
<svg version="1.1" id="Layer_1" xmlns="http://www.w3.org/2000/svg" xmlns:xlink="http://www.w3.org/1999/xlink" x="0px" y="0px"
	 viewBox="0 0 31.9 32" style="enable-background:new 0 0 31.9 32;" xml:space="preserve">
<style type="text/css">
	.st0{fill:#2A2B2A;}
	.st1{fill:none;stroke:#FFFFFF;stroke-width:1.4875;stroke-miterlimit:10;}
	.st2{fill:#FFFFFF;}
	.st3{fill:#221F1F;}
	.st4{fill:#026D75;stroke:#221F1F;stroke-width:0.3967;stroke-miterlimit:10;}
	.st5{fill:#026D75;}
</style>
<path class="st0" d="M28.9,32h-26c-1.7,0-3-1.3-3-3V3c0-1.7,1.3-3,3-3h26c1.7,0,3,1.3,3,3v26C31.9,30.7,30.6,32,28.9,32z"/>
<g>
	<circle class="st1" cx="16" cy="16.2" r="13.4"/>
	<path class="st2" d="M16.1,4.2c0.4,4,0.5,8,0.5,12c0,4-0.1,8-0.5,12c-0.4-4-0.5-8-0.5-12C15.6,12.2,15.7,8.2,16.1,4.2
		C16.1,4.2,16.1,4.2,16.1,4.2z"/>
	<path class="st2" d="M17.4,4.2c8.4,2.3,11.8,12.5,6.6,19.5c-1.6,2.1-3.9,3.7-6.5,4.4c1.2-0.5,2.3-1.2,3.3-2
		C28.4,19.7,26.4,8.1,17.4,4.2C17.4,4.2,17.4,4.2,17.4,4.2z"/>
	<path class="st2" d="M14.8,4.2c-9,3.9-10.9,15.5-3.4,21.9c1,0.8,2.1,1.5,3.3,2c-3.9-1-7.1-4.2-8.3-8C4.2,13.5,8,6,14.8,4.2
		L14.8,4.2L14.8,4.2z"/>
	<path class="st2" d="M3.8,18.3c8.1,1.5,16.3,1.5,24.5,0C20.5,21.2,11.6,21.2,3.8,18.3C3.8,18.3,3.8,18.3,3.8,18.3z"/>
	<path class="st2" d="M28.2,13.6c-8.1-1.5-16.3-1.5-24.5,0C11.6,10.7,20.5,10.7,28.2,13.6L28.2,13.6z"/>
	<path class="st2" d="M6.8,24c3.4,1.4,7,2.1,10.6,1.9c2.8-0.1,5.6-0.8,8.2-1.9c-1.5,1-3.3,1.7-5.1,2.1C15.9,27.3,10.8,26.6,6.8,24
		L6.8,24L6.8,24z"/>
	<path class="st2" d="M6.7,8.3c4-2.5,9.1-3.3,13.7-2.1c1.8,0.4,3.5,1.1,5.1,2.1c-2.6-1.1-5.4-1.8-8.2-1.9C13.7,6.2,10.1,6.9,6.7,8.3
		L6.7,8.3L6.7,8.3z"/>
	<path class="st3" d="M24.7,12.4c-5.4,2.4-12.2,2.8-17.5-0.2C5.5,11.3,4,10,2.6,8.6c3.1,3,7.4,4.7,11.7,4.6c3.3,0,6.6-0.9,9.4-2.5
		L24.7,12.4C24.7,12.4,24.7,12.4,24.7,12.4z"/>
	<path class="st3" d="M23.8,15.5c-6.2,1.7-13.5,1.1-19-2.5c-1.8-1.2-3.4-2.6-4.7-4.3c3.3,3.4,7.7,5.5,12.4,5.8
		c3.5,0.3,7.2-0.2,10.5-1.5L23.8,15.5L23.8,15.5L23.8,15.5z"/>
	<path class="st3" d="M25.9,16c-3.3,1.3-6.8,2-10.3,1.9c-2.9,0-5.9-0.6-8.6-1.9c-1.9-0.9-3.7-2.2-5.2-3.7c3.8,3.3,8.8,4.8,13.7,4.4
		c2.3-0.1,4.6-0.6,6.7-1.4c1-0.3,1.9-0.7,2.8-1.2L25.9,16L25.9,16L25.9,16z"/>
	<g>
		<ellipse transform="matrix(0.9689 -0.2475 0.2475 0.9689 -2.6073 6.426)" class="st4" cx="24.3" cy="13.6" rx="7.4" ry="3.4"/>
		<g>
			<path class="st5" d="M19.2,13.2c-1,1.2-0.9,1.9-0.8,2c0.3,1,2.4,1.5,5.2,1"/>
			<path class="st3" d="M19.2,13.2c-0.8,1.2-1.2,2.3,0.5,2.8c1.2,0.4,2.6,0.3,3.9,0.2c-0.6,0.2-1.3,0.3-2,0.4
				C19.3,16.7,16.8,15.5,19.2,13.2L19.2,13.2L19.2,13.2z"/>
		</g>
		<g>
			<path class="st5" d="M29.2,13.9c1-1.2,0.9-1.9,0.8-2c-0.3-1-2.4-1.5-5.3-1"/>
			<path class="st3" d="M29.2,13.9c0.8-1.3,1.2-2.3-0.6-2.8c-1.3-0.3-2.6-0.3-3.9-0.2c0.6-0.2,1.3-0.3,2-0.4
				c1.1-0.1,3.5,0.1,3.5,1.6C30.2,12.9,29.7,13.4,29.2,13.9L29.2,13.9L29.2,13.9z"/>
		</g>
	</g>
</g>
</svg>
